<svg xmlns="http://www.w3.org/2000/svg" width="23.705" height="12.285" viewBox="0 0 23.705 12.285">
  <g id="noun-view-1041859" transform="translate(-167.093 -186.416)">
    <path id="Path_12978" data-name="Path 12978" d="M247.208,249.418a2.21,2.21,0,1,1,2.21-2.21A2.216,2.216,0,0,1,247.208,249.418Zm0-3.683a1.473,1.473,0,1,0,1.473,1.473,1.559,1.559,0,0,0-.113-.564A1.453,1.453,0,0,0,247.208,245.735Z" transform="translate(-68.263 -54.65)" stroke="#000" stroke-miterlimit="10" stroke-width="0.5"/>
    <path id="Path_12979" data-name="Path 12979" d="M108.945,198.45A14.735,14.735,0,0,1,97.6,192.779l-.184-.221.184-.221a14.178,14.178,0,0,1,22.685,0l.184.221-.184.221a14.735,14.735,0,0,1-11.343,5.671Zm-10.569-5.892a13.411,13.411,0,0,0,21.139,0,13.411,13.411,0,0,0-21.139,0Z" transform="translate(70 0)" stroke="#000" stroke-miterlimit="10" stroke-width="0.5"/>
    <path id="Path_12980" data-name="Path 12980" d="M214.154,219.093a4.58,4.58,0,0,1-3.241-1.363,4.507,4.507,0,0,1-1.142-4.567.373.373,0,1,1,.7.258,3.743,3.743,0,0,0,.958,3.83,3.6,3.6,0,1,0,5.082-5.082,3.79,3.79,0,0,0-4.051-.884.373.373,0,0,1-.258-.7,4.519,4.519,0,0,1,4.935,7.292,4.117,4.117,0,0,1-2.983,1.215Z" transform="translate(-35.061 -22.115)" stroke="#000" stroke-miterlimit="10" stroke-width="0.5"/>
  </g>
</svg>
